# xmcd
#
# Track frame offsets: 
#        150
#        16672
#        33172
#        47307
#        57520
#        69842
#        79742
#        92005
#        108357
#        119795
#        130472
#        145137
#        157317
#        171762
#        187640
#        198940
#        208585
#        217865
#
# Disc length: 3088 seconds
#
# Revision: 4
# Processed by: cddbd v1.5.2PL0 Copyright (c) Steve Scherf et al.
# Submitted via: ExactAudioCopyFreeDBPlugin 1.0
#
DISCID=f00c0e12
DTITLE=Uncle Tupelo - Still Feel Gone
DYEAR=1991
DGENRE=Rock
TTITLE0=Gun
TTITLE1=Looking For A Way Out
TTITLE2=Fall Down Easy
TTITLE3=Nothing
TTITLE4=Still Be Around
TTITLE5=Watch Me Fall
TTITLE6=Punch Drunk
TTITLE7=Postcard
TTITLE8=D. Boon
TTITLE9=True To Life
TTITLE10=Cold Shoulder
TTITLE11=Discarded
TTITLE12=If That's Alright
TTITLE13=Sauget Wind
TTITLE14=I Wanna Destroy You
TTITLE15=Watch Me Fall (Demo)
TTITLE16=Looking For A Way Out (Demo - Fast Version)
TTITLE17=If That's Alright (Demo - Fast Acoustic Version)
EXTD=
EXTT0=
EXTT1=
EXTT2=
EXTT3=
EXTT4=
EXTT5=
EXTT6=
EXTT7=
EXTT8=
EXTT9=
EXTT10=
EXTT11=
EXTT12=
EXTT13=
EXTT14=
EXTT15=
EXTT16=
EXTT17=
PLAYORDER=
